<!-- 기존 svg 파일 -->
<!-- Generated by IcoMoon.io -->
<!-- <svg version="1.1" xmlns="http://www.w3.org/2000/svg" width="32" height="32" viewBox="0 0 32 32">
<title>camera-disabled</title>
<path d="M4.375 2.688l23.625 23.625-1.688 1.688-4.25-4.25c-0.188 0.125-0.5 0.25-0.75 0.25h-16c-0.75 0-1.313-0.563-1.313-1.313v-13.375c0-0.75 0.563-1.313 1.313-1.313h1l-3.625-3.625zM28 8.688v14.25l-14.938-14.938h8.25c0.75 0 1.375 0.563 1.375 1.313v4.688z"></path>
</svg> -->
 

<svg xmlns="http://www.w3.org/2000/svg" xmlns:xlink="http://www.w3.org/1999/xlink" width="24" height="24" viewBox="0 0 24 24">
    <defs>
        <path id="84yvxnakya" d="M0.287 0.486L24 0.486 24 21.915 0.287 21.915z"/>
    </defs>
    <g fill="none" fill-rule="evenodd">
        <g>
            <g>
                <path fill="#3F5DD7" fill-opacity="0" d="M0 24L24 24 24 0 0 0z" transform="translate(-783 -861) translate(783 861)"/>
                <g transform="translate(-783 -861) translate(783 861) translate(0 1)">
                    <mask id="0racrrzp5b" fill="#fff">
                        <use xlink:href="#84yvxnakya"/>
                    </mask>
                    <path fill="#FFF" d="M22.5 14.648c0 .347-.296.503-.506.503-.095 0-.183-.028-.27-.087l-3.262-2.174V9.11l3.262-2.173c.087-.06.175-.087.27-.087.21 0 .506.156.506.503v7.295zm-.506-9.298c-.372 0-.753.106-1.102.339l-2.43 1.619v-.692c0-.524-.136-1.016-.372-1.445l3.404-3.404c.294-.293.294-.768 0-1.061-.293-.293-.767-.293-1.06 0L.506 20.635c-.292.293-.292.767 0 1.06.146.147.339.22.53.22.194 0 .385-.073.53-.22l3.31-3.31h10.585c1.658 0 3-1.343 3-3v-.692l2.43 1.619c.35.233.732.339 1.104.339 1.04 0 2.005-.826 2.005-2.003V7.353c0-1.177-.965-2.003-2.006-2.003z" mask="url(#0racrrzp5b)"/>
                </g>
                <path fill="#FFF" d="M1.292 18.847L15.518 4.621c-.02 0-.038-.006-.057-.006H3.001c-1.658 0-3 1.343-3 3v8.77c0 1.021.512 1.92 1.291 2.462" transform="translate(-783 -861) translate(783 861)"/>
            </g>
        </g>
    </g>
</svg>
