<!-- 기존 svg 파일 -->
<!-- Generated by IcoMoon.io -->
<!-- <svg version="1.1" xmlns="http://www.w3.org/2000/svg" width="32" height="32" viewBox="0 0 32 32">
<title>camera</title>
<path d="M22.688 14l5.313-5.313v14.625l-5.313-5.313v4.688c0 0.75-0.625 1.313-1.375 1.313h-16c-0.75 0-1.313-0.563-1.313-1.313v-13.375c0-0.75 0.563-1.313 1.313-1.313h16c0.75 0 1.375 0.563 1.375 1.313v4.688z"></path>
</svg> -->

<svg xmlns="http://www.w3.org/2000/svg" xmlns:xlink="http://www.w3.org/1999/xlink" width="24" height="24" viewBox="0 0 24 24">
    <defs>
        <path id="9eqvfpn9sa" d="M0 0.616L24 0.616 24 15.385 0 15.385z"/>
    </defs>
    <g fill="none" fill-rule="evenodd">
        <g>
            <g>
                <path fill="#3F5DD7" fill-opacity="0" d="M0 24L24 24 24 0 0 0z" transform="translate(-752 -861) translate(752 861)"/>
                <g transform="translate(-752 -861) translate(752 861) translate(0 4)">
                    <mask id="8zlkqnnvjb" fill="#fff">
                        <use xlink:href="#9eqvfpn9sa"/>
                    </mask>
                    <path fill="#FFF" d="M22.5 11.648c0 .347-.296.503-.506.503-.095 0-.183-.028-.27-.087L18.46 9.89V6.11l3.262-2.173c.088-.06.176-.087.271-.087.21 0 .506.155.506.503v7.295zm-.506-9.298c-.372 0-.754.105-1.103.339l-2.43 1.619v-.692c0-1.657-1.343-3-3-3H3.001c-1.658 0-3 1.343-3 3v8.769c0 1.657 1.342 3 3 3h12.46c1.657 0 3-1.343 3-3v-.693l2.43 1.62c.35.233.731.339 1.103.339 1.04 0 2.006-.826 2.006-2.003V4.353c0-1.177-.966-2.003-2.006-2.003z" mask="url(#8zlkqnnvjb)"/>
                </g>
            </g>
        </g>
    </g>
</svg>
