<!-- 기존 svg 파일 -->
<!-- Generated by IcoMoon.io -->
<!-- <svg version="1.1" xmlns="http://www.w3.org/2000/svg" width="32" height="32" viewBox="0 0 32 32">
<title>camera</title>
<path d="M22.688 14l5.313-5.313v14.625l-5.313-5.313v4.688c0 0.75-0.625 1.313-1.375 1.313h-16c-0.75 0-1.313-0.563-1.313-1.313v-13.375c0-0.75 0.563-1.313 1.313-1.313h16c0.75 0 1.375 0.563 1.375 1.313v4.688z"></path>
</svg> -->


<svg xmlns="http://www.w3.org/2000/svg" width="40" height="40" viewBox="0 0 40 40">
    <g fill="none" fill-rule="evenodd">
        <g>
            <g>
                <path fill="#3E65DD" d="M40 20c0 11.046-8.954 20-20 20S0 31.046 0 20 8.954 0 20 0s20 8.954 20 20" transform="translate(-767 -952) translate(767 952)"/>
                <path fill="#FFF" d="M31.5 23.648c0 .346-.296.503-.506.503-.095 0-.183-.029-.271-.087l-3.261-2.174v-3.78l3.261-2.173c.088-.06.176-.087.271-.087.21 0 .506.156.506.502v7.296zm-.506-9.298c-.372 0-.753.106-1.103.338l-2.429 1.62v-.692c0-1.657-1.344-3-3-3H12c-1.657 0-3 1.343-3 3v8.768c0 1.657 1.343 3 3 3h12.462c1.656 0 3-1.343 3-3v-.692l2.429 1.62c.349.232.731.338 1.103.338 1.04 0 2.006-.825 2.006-2.002v-7.296c0-1.177-.966-2.002-2.006-2.002z" transform="translate(-767 -952) translate(767 952)"/>
            </g>
        </g>
    </g>
</svg>
