<!-- 기존 svg 파일 -->
<!-- Generated by IcoMoon.io -->
<!-- <svg version="1.1" xmlns="http://www.w3.org/2000/svg" width="32" height="32" viewBox="0 0 32 32">
<title>chat</title>
<path d="M26.688 21.313v-16h-21.375v18.688l2.688-2.688h18.688zM26.688 2.688c1.438 0 2.625 1.188 2.625 2.625v16c0 1.438-1.188 2.688-2.625 2.688h-18.688l-5.313 5.313v-24c0-1.438 1.188-2.625 2.625-2.625h21.375z"></path>
</svg> -->

<svg xmlns="http://www.w3.org/2000/svg" xmlns:xlink="http://www.w3.org/1999/xlink" width="24" height="24" viewBox="0 0 24 24">
    <defs>
        <path id="wb7tjwq8xa" d="M0 0.632L24 0.632 24 22.232 0 22.232z"/>
    </defs>
    <g fill="none" fill-rule="evenodd">
        <g>
            <g>
                <path fill="#000" fill-opacity="0" d="M0 24L24 24 24 0 0 0z" transform="translate(-47 -960) translate(47 960)"/>
                <g transform="translate(-47 -960) translate(47 960) translate(0 1)">
                    <mask id="5l8xnsvjnb" fill="#fff">
                        <use xlink:href="#wb7tjwq8xa"/>
                    </mask>
                    <path fill="#FFF" d="M22.2 7.856l-.006 6.227-1.794-1.519v-.766c0-3.378-2.448-6.141-5.44-6.141H6.666c.304-1.81 1.67-3.224 3.254-3.224h8.96c1.8 0 3.32 1.821 3.32 3.979v1.444zm-7.24 9.817H5.44c-.427 0-.839.151-1.163.426L1.8 20.196v-8.398c0-2.353 1.667-4.34 3.64-4.34h9.52c1.973 0 3.64 1.987 3.64 4.34v1.535c0 .103-.02.201-.027.302-.137 2.216-1.727 4.038-3.613 4.038zM18.88.632H9.92c-2.587 0-4.719 2.203-5.052 5.025l-.005.036C2.14 6.021 0 8.64 0 11.798V20.38c0 1.095.796 1.852 1.644 1.852.332 0 .673-.116.977-.373l2.82-2.386h9.52c2.551 0 4.68-2.019 5.255-4.707l1.317 1.115c.286.243.606.351.92.351.798 0 1.547-.712 1.547-1.743V6.412c0-3.179-2.304-5.78-5.12-5.78z" mask="url(#5l8xnsvjnb)"/>
                </g>
                <path fill="#FFF" d="M16.2 13.632c0 .663-.537 1.2-1.2 1.2-.663 0-1.2-.537-1.2-1.2 0-.663.537-1.2 1.2-1.2.663 0 1.2.537 1.2 1.2M11.4 13.632c0 .663-.538 1.2-1.2 1.2-.663 0-1.2-.537-1.2-1.2 0-.663.537-1.2 1.2-1.2.662 0 1.2.537 1.2 1.2M6.6 13.632c0 .663-.537 1.2-1.2 1.2-.662 0-1.2-.537-1.2-1.2 0-.663.538-1.2 1.2-1.2.663 0 1.2.537 1.2 1.2" transform="translate(-47 -960) translate(47 960)"/>
            </g>
        </g>
    </g>
</svg>
