<!-- 기존 svg 파일 -->
<!-- Generated by IcoMoon.io -->
<!-- <svg version="1.1" xmlns="http://www.w3.org/2000/svg" width="32" height="32" viewBox="0 0 32 32">
<title>hangup</title>
<path d="M16 12c-2.125 0-4.188 0.313-6.125 0.938v4.125c0 0.5-0.313 1.063-0.75 1.25-1.313 0.625-2.5 1.438-3.563 2.438-0.25 0.25-0.563 0.375-0.938 0.375s-0.688-0.125-0.938-0.375l-3.313-3.313c-0.25-0.25-0.375-0.563-0.375-0.938s0.125-0.688 0.375-0.938c4.063-3.875 9.563-6.25 15.625-6.25s11.563 2.375 15.625 6.25c0.25 0.25 0.375 0.563 0.375 0.938s-0.125 0.688-0.375 0.938l-3.313 3.313c-0.25 0.25-0.563 0.375-0.938 0.375s-0.688-0.125-0.938-0.375c-1.063-1-2.25-1.813-3.563-2.438-0.438-0.188-0.75-0.625-0.75-1.188v-4.125c-1.938-0.625-4-1-6.125-1z"></path>
</svg> -->

<svg xmlns="http://www.w3.org/2000/svg" xmlns:xlink="http://www.w3.org/1999/xlink" width="24" height="24" viewBox="0 0 24 24">
    <defs>
        <path id="97eo0uamaa" d="M0 0.523L24 0.523 24 9.478 0 9.478z"/>
    </defs>
    <g fill="none" fill-rule="evenodd">
        <g>
            <g>
                <path fill="#3F5DD7" fill-opacity="0" d="M0 24L24 24 24 0 0 0z" transform="translate(-713 -861) translate(713 861)"/>
                <g transform="translate(-713 -861) translate(713 861) translate(0 7)">
                    <mask id="0o4pfp213b" fill="#fff">
                        <use xlink:href="#97eo0uamaa"/>
                    </mask>
                    <path fill="#FFF" d="M2.337 9.473c.93.018 1.857-.014 2.782-.095 1.166-.092 1.638-.737 1.695-1.568.06-.832.09-1.248.155-2.08.036-.388.353-.693.744-.711 1.346-.1 7.228-.1 8.573 0 .392.018.71.323.744.712.065.83.096 1.247.156 2.079.056.83.53 1.476 1.694 1.568.925.08 1.853.113 2.782.095 1.541-.015 2.33-.73 2.338-2.131-.02-.9-.19-1.79-.504-2.635C22.058.72 15.136.523 12 .523 8.864.523 1.941.72.503 4.707.191 5.552.021 6.442 0 7.342c.008 1.402.796 2.116 2.337 2.13" mask="url(#0o4pfp213b)"/>
                </g>
            </g>
        </g>
    </g>
</svg>
