<!-- 기존 svg 파일 -->
<!-- Generated by IcoMoon.io -->
<!-- <svg version="1.1" xmlns="http://www.w3.org/2000/svg" width="32" height="32" viewBox="0 0 32 32">
<title>hangup</title>
<path d="M16 12c-2.125 0-4.188 0.313-6.125 0.938v4.125c0 0.5-0.313 1.063-0.75 1.25-1.313 0.625-2.5 1.438-3.563 2.438-0.25 0.25-0.563 0.375-0.938 0.375s-0.688-0.125-0.938-0.375l-3.313-3.313c-0.25-0.25-0.375-0.563-0.375-0.938s0.125-0.688 0.375-0.938c4.063-3.875 9.563-6.25 15.625-6.25s11.563 2.375 15.625 6.25c0.25 0.25 0.375 0.563 0.375 0.938s-0.125 0.688-0.375 0.938l-3.313 3.313c-0.25 0.25-0.563 0.375-0.938 0.375s-0.688-0.125-0.938-0.375c-1.063-1-2.25-1.813-3.563-2.438-0.438-0.188-0.75-0.625-0.75-1.188v-4.125c-1.938-0.625-4-1-6.125-1z"></path>
</svg> -->


<svg xmlns="http://www.w3.org/2000/svg" width="40" height="40" viewBox="0 0 40 40">
    <g fill="none" fill-rule="evenodd">
        <g>
            <g>
                <path fill="#EA4B4B" d="M40 20c0 11.046-8.954 20-20 20S0 31.046 0 20 8.954 0 20 0s20 8.954 20 20" transform="translate(-700 -952) translate(700 952)"/>
                <path fill="#FFF" d="M9.544 24.845c1.006.02 2.012-.015 3.014-.103 1.262-.099 1.774-.798 1.836-1.699.064-.9.097-1.35.168-2.25.038-.424.382-.753.805-.773 1.458-.107 7.83-.107 9.288 0 .424.02.768.35.806.772.07.9.104 1.35.168 2.251.062.901.574 1.6 1.836 1.7 1.002.087 2.008.121 3.014.102 1.669-.016 2.523-.79 2.533-2.309-.024-.975-.207-1.939-.546-2.854-1.56-4.318-9.058-4.533-12.454-4.533-3.398 0-10.897.215-12.455 4.533-.34.915-.523 1.88-.545 2.854.009 1.52.862 2.293 2.532 2.31" transform="translate(-700 -952) translate(700 952)"/>
            </g>
        </g>
    </g>
</svg>
