<!-- 기존 svg 파일 -->
<!-- Generated by IcoMoon.io -->
<!-- <svg version="1.1" xmlns="http://www.w3.org/2000/svg" width="32" height="32" viewBox="0 0 32 32">
<title>mic-disabled</title>
<path d="M5.688 4l22.313 22.313-1.688 1.688-5.563-5.563c-1 0.625-2.25 1-3.438 1.188v4.375h-2.625v-4.375c-4.375-0.625-8-4.375-8-8.938h2.25c0 4 3.375 6.75 7.063 6.75 1.063 0 2.125-0.25 3.063-0.688l-2.188-2.188c-0.25 0.063-0.563 0.125-0.875 0.125-2.188 0-4-1.813-4-4v-1l-8-8zM20 14.875l-8-7.938v-0.25c0-2.188 1.813-4 4-4s4 1.813 4 4v8.188zM25.313 14.688c0 1.563-0.438 3.063-1.188 4.375l-1.625-1.688c0.375-0.813 0.563-1.688 0.563-2.688h2.25z"></path>
</svg> -->


<svg xmlns="http://www.w3.org/2000/svg" xmlns:xlink="http://www.w3.org/1999/xlink" width="40" height="40" viewBox="0 0 40 40">
    <defs>
        <path id="3v7mihoswa" d="M0 0L40 0 40 40 0 40z"/>
    </defs>
    <g fill="none" fill-rule="evenodd">
        <g>
            <g>
                <g transform="translate(-633 -903) translate(633 903)">
                    <mask id="2qhnuwosob" fill="#fff">
                        <use xlink:href="#3v7mihoswa"/>
                    </mask>
                    <path fill="#31394C" d="M40 20c0 11.046-8.955 20-20 20C8.954 40 0 31.046 0 20S8.954 0 20 0c11.045 0 20 8.954 20 20" mask="url(#2qhnuwosob)"/>
                </g>
                <path fill="#FFF" d="M24.375 12.764v-1.17c0-1.657-1.344-3-3-3h-2.75c-1.657 0-3 1.343-3 3v8.875c0 .313.062.61.15.894l8.6-8.599zM18.625 23.469h2.75c1.656 0 3-1.343 3-3v-3.583l6.613-6.614c.293-.293.293-.767 0-1.06-.293-.293-.767-.293-1.06 0L9.011 30.128c-.293.293-.293.768 0 1.06.146.147.338.22.53.22s.384-.073.53-.22l4.836-4.835c.616.304 1.3.49 2.032.49h2.311v3.313h-3.188c-.414 0-.75.336-.75.75 0 .415.336.75.75.75h7.875c.415 0 .75-.335.75-.75 0-.414-.335-.75-.75-.75H20.75v-3.312h2.31c2.586 0 4.69-2.104 4.69-4.69v-4.371c0-.414-.336-.75-.75-.75s-.75.336-.75.75v4.372c0 1.758-1.432 3.189-3.19 3.189h-6.12c-.309 0-.6-.058-.882-.142l1.837-1.836c.234.06.475.103.73.103M13.94 23.199c-.114-.33-.19-.677-.19-1.044v-4.372c0-.414-.335-.75-.75-.75-.413 0-.75.336-.75.75v4.372c0 .789.214 1.52.56 2.174l1.13-1.13z" transform="translate(-633 -903) translate(633 903)"/>
            </g>
        </g>
    </g>
</svg>
