<!-- 기존 svg 파일 -->
<!-- Generated by IcoMoon.io -->
<!-- <svg version="1.1" xmlns="http://www.w3.org/2000/svg" width="32" height="32" viewBox="0 0 32 32">
<title>microphone</title>
<path d="M23.063 14.688h2.25c0 4.563-3.625 8.313-8 8.938v4.375h-2.625v-4.375c-4.375-0.625-8-4.375-8-8.938h2.25c0 4 3.375 6.75 7.063 6.75s7.063-2.75 7.063-6.75zM16 18.688c-2.188 0-4-1.813-4-4v-8c0-2.188 1.813-4 4-4s4 1.813 4 4v8c0 2.188-1.813 4-4 4z"></path>
</svg> -->


<svg xmlns="http://www.w3.org/2000/svg" width="24" height="24" viewBox="0 0 24 24">
    <g fill="none" fill-rule="evenodd">
        <g>
            <g>
                <path fill="#3F5DD7" fill-opacity="0" d="M0 24L24 24 24 0 0 0z" transform="translate(-641 -862) translate(641 862)"/>
                <path fill="#FFF" d="M13.374.469h-2.75c-1.655 0-3 1.343-3 3v8.875c0 1.657 1.345 3 3 3h2.75c1.657 0 3-1.343 3-3V3.469c0-1.657-1.342-3-3-3" transform="translate(-641 -862) translate(641 862)"/>
                <path fill="#FFF" d="M19 8.909c-.413 0-.75.336-.75.75v4.37c0 1.759-1.431 3.19-3.19 3.19H8.94c-1.758 0-3.19-1.431-3.19-3.19V9.66c0-.414-.335-.75-.75-.75-.413 0-.75.336-.75.75v4.37c0 2.587 2.104 4.69 4.69 4.69h2.31v3.313H8.063c-.413 0-.75.335-.75.75 0 .414.337.75.75.75h7.876c.414 0 .75-.336.75-.75 0-.415-.335-.75-.75-.75H12.75v-3.313h2.31c2.586 0 4.69-2.103 4.69-4.69V9.66c0-.414-.335-.75-.75-.75" transform="translate(-641 -862) translate(641 862)"/>
            </g>
        </g>
    </g>
</svg>
