<!-- 기존 svg 파일 -->
<!-- Generated by IcoMoon.io -->
<!-- <svg version="1.1" xmlns="http://www.w3.org/2000/svg" width="32" height="32" viewBox="0 0 32 32">
<title>microphone</title>
<path d="M23.063 14.688h2.25c0 4.563-3.625 8.313-8 8.938v4.375h-2.625v-4.375c-4.375-0.625-8-4.375-8-8.938h2.25c0 4 3.375 6.75 7.063 6.75s7.063-2.75 7.063-6.75zM16 18.688c-2.188 0-4-1.813-4-4v-8c0-2.188 1.813-4 4-4s4 1.813 4 4v8c0 2.188-1.813 4-4 4z"></path>
</svg> -->


<svg xmlns="http://www.w3.org/2000/svg" width="40" height="40" viewBox="0 0 40 40">
    <g fill="none" fill-rule="evenodd">
        <g>
            <g>
                <path fill="#3E65DD" d="M40 20c0 11.046-8.954 20-20 20S0 31.046 0 20 8.954 0 20 0s20 8.954 20 20" transform="translate(-633 -952) translate(633 952)"/>
                <path fill="#FFF" d="M21.375 8.594h-2.75c-1.657 0-3 1.343-3 3v8.875c0 1.657 1.343 3 3 3h2.75c1.657 0 3-1.343 3-3v-8.875c0-1.657-1.343-3-3-3" transform="translate(-633 -952) translate(633 952)"/>
                <path fill="#FFF" d="M27 17.033c-.414 0-.75.336-.75.75v4.371c0 1.76-1.431 3.19-3.189 3.19h-6.122c-1.758 0-3.189-1.43-3.189-3.19v-4.37c0-.415-.336-.75-.75-.75s-.75.335-.75.75v4.37c0 2.586 2.104 4.69 4.689 4.69h2.311v3.312h-3.188c-.414 0-.75.336-.75.75s.336.75.75.75h7.875c.415 0 .75-.336.75-.75s-.335-.75-.75-.75H20.75v-3.312h2.311c2.585 0 4.689-2.104 4.689-4.69v-4.37c0-.415-.336-.75-.75-.75" transform="translate(-633 -952) translate(633 952)"/>
            </g>
        </g>
    </g>
</svg>
