<svg xmlns="http://www.w3.org/2000/svg" width="24" height="24" viewBox="0 0 24 24">
    <g fill="none" fill-rule="evenodd">
        <g>
            <g>
                <path fill="#3F5DD7" fill-opacity="0" d="M0 24L24 24 24 0 0 0z" transform="translate(-674 -862) translate(674 862)"/>
                <path fill="#FFF" d="M16.376 4.64V3.47c0-1.658-1.344-3-3-3h-2.75c-1.657 0-3 1.342-3 3v8.874c0 .314.062.61.15.894l8.6-8.599zM10.626 15.344h2.75c1.656 0 3-1.343 3-3V8.76l6.119-6.12c.293-.293.293-.767 0-1.06-.293-.293-.767-.293-1.06 0L1.505 21.51c-.292.292-.292.767 0 1.06.147.147.339.22.53.22.194 0 .385-.073.53-.22l4.343-4.342c.616.304 1.299.49 2.032.49h2.31v3.313H8.064c-.414 0-.75.336-.75.75 0 .415.336.75.75.75h7.875c.415 0 .75-.335.75-.75 0-.414-.335-.75-.75-.75H12.75v-3.312h2.31c2.586 0 4.69-2.104 4.69-4.69V9.66c0-.414-.336-.75-.75-.75s-.75.336-.75.75v4.37c0 1.759-1.432 3.19-3.19 3.19H8.94c-.308 0-.6-.058-.881-.142l1.837-1.836c.234.06.475.103.73.103M5.941 15.074c-.115-.33-.19-.677-.19-1.044V9.659c0-.414-.336-.75-.75-.75s-.75.336-.75.75v4.37c0 .79.213 1.522.559 2.175l1.131-1.13z" transform="translate(-674 -862) translate(674 862)"/>
            </g>
        </g>
    </g>
</svg>
