<!-- ê¸°ì¡´ svg íŒŒì¼ -->
<!-- Generated by IcoMoon.io -->
<!-- <svg version="1.1" xmlns="http://www.w3.org/2000/svg" width="32" height="32" viewBox="0 0 32 32">
<title>raised-hand</title>
<path d="M30.688 7.313v19.375c0 2.938-2.438 5.313-5.375 5.313h-9.688c-1.438 0-2.813-0.563-3.813-1.563l-10.5-10.688s1.688-1.625 1.75-1.625c0.313-0.25 0.688-0.375 1.063-0.375 0.313 0 0.563 0.063 0.813 0.188 0.063 0 5.75 3.25 5.75 3.25v-15.875c0-1.125 0.875-2 2-2s2 0.875 2 2v9.375h1.313v-12.688c0-1.125 0.875-2 2-2s2 0.875 2 2v12.688h1.313v-11.375c0-1.125 0.875-2 2-2s2 0.875 2 2v11.375h1.375v-7.375c0-1.125 0.875-2 2-2s2 0.875 2 2z"></path>
</svg> -->

<svg xmlns="http://www.w3.org/2000/svg" xmlns:xlink="http://www.w3.org/1999/xlink" width="24" height="24" viewBox="0 0 24 24">
    <defs>
        <path id="n3wbpv5x5a" d="M0 24L24 24 24 0 0 0z"/>
    </defs>
    <g fill="none" fill-rule="evenodd">
        <g>
            <g transform="translate(-163 -960) translate(163 960)">
                <path fill="#FFF" d="M9.73 4.282c-2.388 0-4.324 1.936-4.324 4.325 0 2.388 1.936 4.324 4.325 4.324 2.388 0 4.324-1.936 4.324-4.324 0-2.389-1.936-4.325-4.324-4.325m0 1.946c1.31 0 2.378 1.067 2.378 2.38 0 1.31-1.067 2.377-2.378 2.377-1.312 0-2.38-1.067-2.38-2.378 0-1.312 1.068-2.379 2.38-2.379M12.397 14.013H7.064C3.178 14.013 0 17.192 0 21.076v.649c0 1.11.907 2.018 2.017 2.018h15.425c1.11 0 2.017-.908 2.017-2.018v-.65c0-3.883-3.177-7.062-7.063-7.062m0 1.946c2.822 0 5.118 2.296 5.118 5.117v.649c0 .035-.037.072-.072.072H2.018c-.035 0-.072-.037-.072-.072v-.65c0-2.82 2.296-5.116 5.118-5.116h5.333"/>
                <mask id="ed58ut7fub" fill="#fff">
                    <use xlink:href="#n3wbpv5x5a"/>
                </mask>
                <path fill="#FFF" d="M18.947 9.019L24 9.019 24 7.124 18.947 7.124zM18.354 4.952L17.014 3.612 20.371.256 21.71 1.596zM20.37 15.887L17.015 12.531 18.354 11.192 21.71 14.548z" mask="url(#ed58ut7fub)"/>
            </g>
        </g>
    </g>
</svg>
