<!-- 기존 svg 파일 -->
<!-- <svg width="24" height="25" viewBox="0 0 24 25" fill="none" xmlns="http://www.w3.org/2000/svg">
<path d="M3.87597 3.00772L3 3.11722V4V13.6745C3 16.088 4.24334 18.3313 6.29001 19.6105L11.47 22.848L12 23.1792L12.53 22.848L17.71 19.6105C19.7567 18.3313 21 16.088 21 13.6745V4V3.11722L20.124 3.00772L12.124 2.00772L12 1.99222L11.876 2.00772L3.87597 3.00772Z" fill="url(#paint0_linear)" stroke="white" stroke-width="2"/>
<path d="M20 4V13.6745C20 15.7433 18.9343 17.6661 17.18 18.7625L12 22V3L20 4Z" fill="url(#paint1_linear)"/>
<path d="M9 11.4382L10.6848 13L15 9" stroke="white" stroke-width="1.5" stroke-linecap="round" stroke-linejoin="round"/>
<defs>
<linearGradient id="paint0_linear" x1="11.8143" y1="4.14215" x2="11.8143" y2="23" gradientUnits="userSpaceOnUse">
<stop stop-color="#76CF9C"/>
<stop offset="1" stop-color="#279255"/>
</linearGradient>
<linearGradient id="paint1_linear" x1="11.8143" y1="4.14215" x2="11.8143" y2="23" gradientUnits="userSpaceOnUse">
<stop stop-color="#31B76A"/>
<stop offset="1" stop-color="#18663A"/>
</linearGradient>
</defs>
</svg> -->

<svg xmlns="http://www.w3.org/2000/svg" width="24" height="24" viewBox="0 0 24 24">
    <g fill="none" fill-rule="evenodd">
        <g fill="#FFF">
            <g>
                <path d="M22 18.665c0 1.839-1.495 3.334-3.333 3.334H5.333C3.495 22 2 20.504 2 18.665v-6.67c0-.361.306-.666.667-.666h18.666c.361 0 .667.305.667.666v6.67zM7.171 5.187c0-1.727 2.212-3.186 4.829-3.186 2.617 0 4.829 1.46 4.829 3.186v4.14H7.171v-4.14zm14.162 4.14h-2.504v-4.14C18.829 2.327 15.766 0 12 0 8.234 0 5.171 2.327 5.171 5.187v4.14H2.667C1.2 9.328 0 10.529 0 11.996v6.67C0 21.599 2.4 24 5.333 24h13.334C21.6 24 24 21.599 24 18.665v-6.67c0-1.467-1.2-2.667-2.667-2.667z" transform="translate(-1308 -957) translate(1308 957)"/>
                <path d="M12 14.157c-1.013 0-1.833.821-1.833 1.833 0 .777.484 1.437 1.166 1.704v1.63c0 .368.299.666.667.666.368 0 .667-.298.667-.666v-1.63c.682-.267 1.166-.927 1.166-1.704 0-1.012-.82-1.833-1.833-1.833" transform="translate(-1308 -957) translate(1308 957)"/>
            </g>
        </g>
    </g>
</svg>
