<!-- 기존 svg 파일 -->
<!-- Generated by IcoMoon.io -->
<!-- <svg version="1.1" xmlns="http://www.w3.org/2000/svg" width="32" height="32" viewBox="0 0 32 32">
<title>share-desktop</title>
<path d="M28 22.688v-16h-24v16h24zM28 4c1.438 0 2.688 1.25 2.688 2.688l-0.063 16c0 1.438-1.188 2.625-2.625 2.625h-6.688v2.688h-10.625v-2.688h-6.688c-1.438 0-2.688-1.188-2.688-2.625v-16c0-1.438 1.25-2.688 2.688-2.688h24z"></path>
</svg> -->


<svg xmlns="http://www.w3.org/2000/svg" xmlns:xlink="http://www.w3.org/1999/xlink" width="24" height="24" viewBox="0 0 24 24">
    <defs>
        <path id="i4256ssara" d="M0 0.182L24 0.182 24 20.404 0 20.404z"/>
    </defs>
    <g fill="none" fill-rule="evenodd">
        <g>
            <g>
                <path fill="#000" fill-opacity="0" d="M0 24L24 24 24 0 0 0z" transform="translate(-105 -960) translate(105 960)"/>
                <g transform="translate(-105 -960) translate(105 960) translate(0 2)">
                    <mask id="evao2wir4b" fill="#fff">
                        <use xlink:href="#i4256ssara"/>
                    </mask>
                    <path fill="#FFF" d="M1.966 13.645V3.082c0-.572.483-1.056 1.056-1.056h17.957c.572 0 1.056.484 1.056 1.056v10.563c0 .573-.484 1.056-1.056 1.056H3.022c-.573 0-1.056-.483-1.056-1.056M21.273.182H2.728C1.228.182 0 1.409 0 2.909v10.909c0 1.5 1.228 2.727 2.728 2.727h7.909v1.774H7.909c-.753 0-1.363.467-1.363 1.042 0 .576.61 1.043 1.363 1.043h8.182c.753 0 1.364-.467 1.364-1.043 0-.575-.611-1.042-1.364-1.042h-2.728v-1.774h7.91c1.5 0 2.727-1.227 2.727-2.727V2.909c0-1.5-1.227-2.727-2.727-2.727" mask="url(#evao2wir4b)"/>
                </g>
            </g>
        </g>
    </g>
</svg>
