<!-- 기존 svg 파일 -->
<!-- Generated by IcoMoon.io -->
<!-- <svg version="1.1" xmlns="http://www.w3.org/2000/svg" width="24" height="24" viewBox="0 0 24 24">
<title>thumb-menu</title>
<path d="M12 15.984c1.078 0 2.016 0.938 2.016 2.016s-0.938 2.016-2.016 2.016-2.016-0.938-2.016-2.016 0.938-2.016 2.016-2.016zM12 9.984c1.078 0 2.016 0.938 2.016 2.016s-0.938 2.016-2.016 2.016-2.016-0.938-2.016-2.016 0.938-2.016 2.016-2.016zM12 8.016c-1.078 0-2.016-0.938-2.016-2.016s0.938-2.016 2.016-2.016 2.016 0.938 2.016 2.016-0.938 2.016-2.016 2.016z"></path>
</svg> -->


<svg xmlns="http://www.w3.org/2000/svg" xmlns:xlink="http://www.w3.org/1999/xlink" width="24" height="24" viewBox="0 0 24 24">
    <defs>
        <path id="lj42zwpfea" d="M0 0.666L4.669 0.666 4.669 5.334 0 5.334z"/>
    </defs>
    <g fill="none" fill-rule="evenodd">
        <g>
            <g>
                <path fill="none" d="M0 24L24 24 24 0 0 0z" transform="translate(-1366 -957) translate(1366 957)"/>
                <g transform="translate(-1366 -957) translate(1366 957) translate(0 9)">
                    <mask id="1rhe9fk4tb" fill="#fff">
                        <use xlink:href="#lj42zwpfea"/>
                    </mask>
                    <path fill="#FFF" d="M4.669 3c0 1.289-1.046 2.334-2.335 2.334C1.044 5.334 0 4.289 0 3 0 1.711 1.045.666 2.334.666 3.623.666 4.669 1.711 4.669 3" mask="url(#1rhe9fk4tb)"/>
                </g>
                <path fill="#FFF" d="M24 12c0 1.289-1.045 2.334-2.334 2.334-1.289 0-2.335-1.045-2.335-2.334 0-1.289 1.046-2.334 2.335-2.334S24 10.711 24 12M14.334 12c0 1.289-1.045 2.334-2.334 2.334-1.289 0-2.334-1.045-2.334-2.334 0-1.289 1.045-2.334 2.334-2.334 1.289 0 2.334 1.045 2.334 2.334" transform="translate(-1366 -957) translate(1366 957)"/>
            </g>
        </g>
    </g>
</svg>
