<!-- 기존 svg 파일 -->
<!-- Generated by IcoMoon.io -->
<!-- <svg version="1.1" xmlns="http://www.w3.org/2000/svg" width="24" height="24" viewBox="0 0 24 24">
<title>tiles-many</title>
<path d="M2.667 0h5.333c1.473 0 2.667 1.194 2.667 2.667v5.333c0 1.473-1.194 2.667-2.667 2.667h-5.333c-1.473 0-2.667-1.194-2.667-2.667v-5.333c0-1.473 1.194-2.667 2.667-2.667zM4 2.667c-0.736 0-1.333 0.597-1.333 1.333v2.667c0 0.736 0.597 1.333 1.333 1.333h2.667c0.736 0 1.333-0.597 1.333-1.333v-2.667c0-0.736-0.597-1.333-1.333-1.333h-2.667zM2.667 13.333h5.333c1.473 0 2.667 1.194 2.667 2.667v5.333c0 1.473-1.194 2.667-2.667 2.667h-5.333c-1.473 0-2.667-1.194-2.667-2.667v-5.333c0-1.473 1.194-2.667 2.667-2.667zM4 16c-0.736 0-1.333 0.597-1.333 1.333v2.667c0 0.736 0.597 1.333 1.333 1.333h2.667c0.736 0 1.333-0.597 1.333-1.333v-2.667c0-0.736-0.597-1.333-1.333-1.333h-2.667zM16 0h5.333c1.473 0 2.667 1.194 2.667 2.667v5.333c0 1.473-1.194 2.667-2.667 2.667h-5.333c-1.473 0-2.667-1.194-2.667-2.667v-5.333c0-1.473 1.194-2.667 2.667-2.667zM17.333 2.667c-0.736 0-1.333 0.597-1.333 1.333v2.667c0 0.736 0.597 1.333 1.333 1.333h2.667c0.736 0 1.333-0.597 1.333-1.333v-2.667c0-0.736-0.597-1.333-1.333-1.333h-2.667zM16 13.333h5.333c1.473 0 2.667 1.194 2.667 2.667v5.333c0 1.473-1.194 2.667-2.667 2.667h-5.333c-1.473 0-2.667-1.194-2.667-2.667v-5.333c0-1.473 1.194-2.667 2.667-2.667zM17.333 16c-0.736 0-1.333 0.597-1.333 1.333v2.667c0 0.736 0.597 1.333 1.333 1.333h2.667c0.736 0 1.333-0.597 1.333-1.333v-2.667c0-0.736-0.597-1.333-1.333-1.333h-2.667z"></path>
</svg> -->


<svg xmlns="http://www.w3.org/2000/svg" xmlns:xlink="http://www.w3.org/1999/xlink" width="24" height="24" viewBox="0 0 24 24">
    <defs>
        <path id="o5u1q57u7a" d="M0 0L24 0 24 24 0 24z"/>
    </defs>
    <g fill="none" fill-rule="evenodd">
        <g>
            <g>
                <path fill="#000" fill-opacity="0" d="M0 24L24 24 24 0 0 0z" transform="translate(-1192 -957) translate(1192 957)"/>
                <g transform="translate(-1192 -957) translate(1192 957)">
                    <mask id="j1ds6t4fqb" fill="#fff">
                        <use xlink:href="#o5u1q57u7a"/>
                    </mask>
                    <path fill="#FFF" d="M17 7.445V2h1.667C20.505 2 22 3.495 22 5.334v2.11h-5zm0 7.11h5v-5.11h-5v5.11zm5 4.112C22 20.505 20.505 22 18.667 22H17v-5.444h5v2.11zM5.333 22C3.495 22 2 20.505 2 18.667V5.334C2 3.494 3.495 2 5.333 2H15v20H5.333zM18.667 0H5.333C2.4 0 0 2.4 0 5.334v13.333C0 21.6 2.4 24 5.333 24h13.334C21.6 24 24 21.6 24 18.667V5.334C24 2.4 21.6 0 18.667 0z" mask="url(#j1ds6t4fqb)"/>
                </g>
            </g>
        </g>
    </g>
</svg>
