<!-- 기존 svg 파일 -->
<!-- <svg width="24" height="24" viewBox="0 0 24 24" fill="none" xmlns="http://www.w3.org/2000/svg">
<path fill-rule="evenodd" clip-rule="evenodd" d="M14 7C14 8.10457 13.1046 9 12 9C10.8954 9 10 8.10457 10 7C10 5.89543 10.8954 5 12 5C13.1046 5 14 5.89543 14 7ZM8 7C8 9.20914 9.79086 11 12 11C14.2091 11 16 9.20914 16 7C16 4.79086 14.2091 3 12 3C9.79086 3 8 4.79086 8 7ZM12 12C5.98633 12 4 14.25 4 18.75C4 20.25 4.66667 21 6 21H14.7578C15.565 22.206 16.9398 23 18.5 23C20.9853 23 23 20.9853 23 18.5C23 16.0381 21.0231 14.038 18.5701 14.0005C17.3541 12.6668 15.2739 12 12 12ZM16.1639 14.6531C15.2365 14.1909 13.8943 14 12 14C7.30232 14 6 15.1737 6 18.75C6 18.8592 6.00376 18.9414 6.00693 19H14.0275C14.0093 18.8358 14 18.669 14 18.5C14 16.8702 14.8665 15.4427 16.1639 14.6531ZM19 18H21V19H19V21H18V19H16V18H18V16H19V18Z" fill="white"/>
</svg> -->


<svg xmlns="http://www.w3.org/2000/svg" xmlns:xlink="http://www.w3.org/1999/xlink" width="24" height="24" viewBox="0 0 24 24">
    <defs>
        <path id="iku488rcla" d="M0.342 0.059L8 0.059 8 7.717 0.342 7.717z"/>
    </defs>
    <g fill="none" fill-rule="evenodd">
        <g>
            <g>
                <path fill="#000" fill-opacity="0" d="M0 24L24 24 24 0 0 0z" transform="translate(-1250 -957) translate(1250 957)"/>
                <path fill="#FFF" d="M11.205.795c-2.75 0-4.98 2.23-4.98 4.98 0 2.75 2.23 4.98 4.98 4.98 2.75 0 4.98-2.23 4.98-4.98 0-2.75-2.23-4.98-4.98-4.98m0 1.868c1.716 0 3.112 1.396 3.112 3.112 0 1.716-1.396 3.113-3.112 3.113-1.717 0-3.112-1.397-3.112-3.113s1.395-3.112 3.112-3.112M13.694 12H8.715C3.922 12 0 15.922 0 20.715c0 1.37 1.12 2.49 2.49 2.49h17.43c1.37 0 2.49-1.12 2.49-2.49 0-4.793-3.922-8.715-8.716-8.715m0 1.867c3.776 0 6.848 3.072 6.848 6.848 0 .337-.286.622-.622.622H2.49c-.338 0-.623-.285-.623-.622 0-3.776 3.072-6.848 6.848-6.848h4.98" transform="translate(-1250 -957) translate(1250 957)"/>
                <g transform="translate(-1250 -957) translate(1250 957) translate(16 5)">
                    <mask id="s3ln14uhcb" fill="#fff">
                        <use xlink:href="#iku488rcla"/>
                    </mask>
                    <path fill="#FFF" d="M7.234 3.122H4.936V.825c0-.423-.343-.766-.765-.766s-.766.343-.766.766v2.297H1.108c-.423 0-.766.343-.766.766 0 .422.343.766.766.766h2.297V6.95c0 .422.344.766.766.766.422 0 .765-.344.765-.766V4.654h2.298c.423 0 .766-.344.766-.766 0-.423-.343-.766-.766-.766" mask="url(#s3ln14uhcb)"/>
                </g>
            </g>
        </g>
    </g>
</svg>
